<svg width="101" height="101" viewBox="0 0 101 101" fill="none" xmlns="http://www.w3.org/2000/svg">
<path d="M80.5706 16.2903H69.6458V11.4032C69.6458 5.14774 65.3305 0 60.0865 0H9.55922C4.31531 0 0 5.14774 0 11.4032V70.0484C0 76.3039 4.31531 81.4516 9.55922 81.4516H11.0887C11.7988 92.3336 19.3916 101 28.6777 101C37.9638 101 45.5565 92.3336 46.2666 81.4516H54.7334C55.4435 92.3336 63.0362 101 72.3223 101C81.6084 101 89.2012 92.3336 89.9113 81.4516H91.4408C96.6847 81.4516 101 76.3039 101 70.0484V40.7258C101 27.2374 91.8232 16.2903 80.516 16.2903H80.5706ZM8.19362 70.0484V11.4032C8.19362 10.491 8.79448 9.77419 9.55922 9.77419H60.0865C60.8513 9.77419 61.4521 10.491 61.4521 11.4032V63.1413C61.4521 63.1413 61.179 63.5323 61.0151 63.6626C60.1958 64.5097 59.431 65.4219 58.7209 66.3994C58.5024 66.7252 58.2839 66.9858 58.1201 67.3116C57.3007 68.68 56.536 70.0484 56.0444 71.6123H45.1195C45.1195 71.6123 45.1195 71.6123 45.1195 71.5471C44.7372 70.4394 44.1909 69.3316 43.6447 68.3542C43.4808 68.0936 43.3169 67.8329 43.1531 67.5071C42.7161 66.7252 42.2244 66.0736 41.6782 65.3568C41.4597 65.0961 41.2958 64.8355 41.0773 64.5748C40.3672 63.7929 39.6571 63.0761 38.8924 62.4245C38.7831 62.3594 38.7285 62.229 38.6193 62.1639C37.7999 61.5123 36.9259 60.991 36.0519 60.4697C35.7242 60.2742 35.3964 60.1439 35.0687 60.0136C34.3586 59.6877 33.7031 59.4271 32.993 59.2316C32.6652 59.1665 32.3375 59.0361 32.0097 58.971C30.9719 58.7103 29.8794 58.58 28.7869 58.58C27.6944 58.58 26.6566 58.7103 25.5641 58.971C25.2363 59.0361 24.9086 59.1665 24.5809 59.2316C23.8707 59.4271 23.1606 59.6877 22.5051 60.0136C22.1774 60.1439 21.8496 60.2742 21.5219 60.4697C20.6479 60.9258 19.7739 61.5123 18.9546 62.1639C18.8453 62.229 18.7907 62.2942 18.6815 62.4245C17.9167 63.0761 17.152 63.7929 16.4965 64.5748C16.278 64.8355 16.0595 65.0961 15.8956 65.3568C15.3494 66.0084 14.8578 66.7252 14.4208 67.5071C14.2569 67.7677 14.093 68.0284 13.9292 68.3542C13.3829 69.3968 12.8913 70.4394 12.4543 71.5471C12.4543 71.5471 12.4543 71.5471 12.4543 71.6123H9.72309C8.95836 71.6123 8.35749 70.8955 8.35749 69.9832L8.19362 70.0484ZM28.6777 91.2258C23.4338 91.2258 19.1184 86.0781 19.1184 79.8226C19.1184 79.0406 19.1731 78.2587 19.3369 77.5419C19.5554 76.369 19.9378 75.2613 20.4294 74.2839C20.484 74.0884 20.5933 73.9581 20.6479 73.7626C21.1395 72.8503 21.7404 72.0032 22.4505 71.2865C22.6144 71.1561 22.7236 71.0258 22.8875 70.8955C23.5976 70.2439 24.417 69.6574 25.291 69.2665C25.4002 69.2665 25.5641 69.1361 25.728 69.1361C26.6566 68.7452 27.6944 68.4845 28.7323 68.4845C29.7701 68.4845 30.7534 68.7452 31.7366 69.1361C31.9005 69.1361 32.0097 69.2013 32.1736 69.2665C33.0476 69.6574 33.867 70.2439 34.5771 70.8955C34.7409 71.0258 34.8502 71.1561 35.0141 71.2865C35.7242 72.0032 36.325 72.8503 36.8167 73.7626C36.9259 73.8929 36.9805 74.0884 37.0352 74.2839C37.5268 75.3265 37.9091 76.369 38.1276 77.5419C38.2369 78.2587 38.3461 79.0406 38.3461 79.8226C38.3461 86.0781 34.0308 91.2258 28.7869 91.2258H28.6777ZM72.377 91.2258C67.133 91.2258 62.8177 86.0781 62.8177 79.8226C62.8177 79.0406 62.8724 78.2587 63.0362 77.5419C63.2001 76.76 63.364 75.9781 63.6371 75.2613C63.6371 75.2613 63.6371 75.1961 63.6371 75.131C63.9102 74.4794 64.1833 73.8278 64.5657 73.2413C64.6203 73.111 64.7296 73.0458 64.7842 72.9155C65.112 72.3942 65.4397 71.9381 65.8221 71.4819C65.9313 71.3516 66.0406 71.2865 66.1498 71.1561C66.5322 70.7652 66.9692 70.3742 67.4062 70.0484C67.5154 69.9832 67.6793 69.8529 67.8432 69.7878C68.3348 69.4619 68.881 69.2013 69.4273 69.0058C69.6458 68.9407 69.8643 68.8103 70.1374 68.7452C70.8475 68.5497 71.6122 68.4194 72.377 68.4194C73.4148 68.4194 74.3981 68.68 75.3813 69.071C75.5452 69.071 75.6544 69.1361 75.8183 69.2013C76.6923 69.5923 77.5116 70.1787 78.2217 70.8303C78.3856 70.9606 78.4949 71.091 78.6587 71.2213C79.3689 71.9381 79.9697 72.7852 80.4613 73.6974C80.5706 73.8278 80.6252 74.0232 80.6798 74.2187C81.1715 75.2613 81.5538 76.3039 81.7723 77.4768C81.8816 78.1936 81.9908 78.9755 81.9908 79.7574C81.9908 86.0129 77.6755 91.1607 72.4316 91.1607L72.377 91.2258ZM69.6458 45.6129V26.0645H80.5706C87.344 26.0645 92.861 32.6458 92.861 40.7258V45.6129H69.6458Z" fill="black"/>
</svg>
