<svg width="47" height="37" viewBox="0 0 47 37" fill="none" xmlns="http://www.w3.org/2000/svg">
<path d="M40.6091 0C39.6874 0.00402355 38.8609 0.267868 38.0358 0.59619C37.0924 0.971588 36.1887 1.47634 35.2201 1.81633C34.5457 2.05332 33.7887 2.19535 33.0266 2.07937C30.718 9.22641 30.2112 17.0755 30.1293 24.1989H37.0375C36.8909 23.6232 36.8401 22.9747 36.8438 22.2331C36.8529 20.349 37.2417 17.8926 37.9078 15.2291C39.1449 10.2825 41.3102 4.70595 44.0631 1.16914C42.9013 0.431324 41.9029 0.0843936 41.0105 0.0147861C40.8745 0.00422428 40.7407 -0.000603533 40.6091 0ZM31.0784 2.20913C29.838 2.56481 28.6633 3.04201 27.2068 3.2965C25.4356 3.60561 23.3112 3.47223 20.4075 2.32682V24.1989H28.3085C28.3849 17.2214 28.8565 9.46159 31.0784 2.20913ZM18.5875 2.69427C16.7725 3.88977 15.1921 4.56583 13.4744 4.56301C11.812 4.5604 10.1296 3.94037 8.05502 2.8359C9.95937 9.81677 10.5669 17.3953 10.6785 24.199H18.5875V2.69427ZM6.17949 2.87956C5.0535 4.07103 3.82832 4.78441 2.62083 5.12802C1.70577 5.38855 0.823258 5.43049 0 5.36571C1.23782 8.29184 2.17736 11.7232 2.54621 15.0675C2.91325 18.3948 2.73165 21.6356 1.59444 24.199H8.85775C8.74148 17.3448 8.10952 9.7362 6.17949 2.87956ZM38.9524 19.1694C38.9473 19.2018 38.9417 19.2348 38.9368 19.267L38.6671 22.044C38.6657 22.1104 38.6639 22.1776 38.6636 22.2417C38.6595 23.06 38.7574 23.6972 38.8766 24.0099C38.9181 24.1191 38.9519 24.1703 38.973 24.199H43.0566V25.8084H44.8766V22.3884H40.4277V19.1695L38.9524 19.1694ZM0.993936 26.0095V30.6365H2.46765C2.69667 28.7994 3.61123 27.1698 4.94875 26.0095H0.993936ZM14.6327 26.0095C15.9701 27.1698 16.8848 28.7994 17.1137 30.6365H21.8811C22.1102 28.7994 23.0247 27.1698 24.3622 26.0095H14.6327ZM34.0463 26.0095C35.3837 27.1698 36.2984 28.7994 36.5273 30.6365H41.2366V29.2283H47V27.4177H41.2366V26.0095H34.0463ZM8.88071 26.0837C8.02105 26.2233 7.22934 26.5575 6.55178 27.0395L8.88071 29.3564V26.0837ZM10.7007 26.0837V29.3564L13.0297 27.0395C12.3522 26.5574 11.5605 26.2233 10.7007 26.0837ZM28.2943 26.0837C27.4346 26.2233 26.6429 26.5575 25.9654 27.0395L28.2943 29.3564V26.0837ZM30.1143 26.0837V29.3564L32.4432 27.0395C31.7658 26.5574 30.9741 26.2233 30.1143 26.0837ZM5.26493 28.3198C4.78029 28.9937 4.4445 29.7813 4.30416 30.6365H7.59385L5.26493 28.3198ZM14.3165 28.3198L11.9876 30.6365H15.2773C15.1369 29.7813 14.801 28.9938 14.3165 28.3198ZM24.6785 28.3198C24.1939 28.9937 23.8581 29.7813 23.7177 30.6365H27.0074L24.6785 28.3198ZM33.7301 28.3198L31.4012 30.6365H34.6909C34.5505 29.7813 34.2146 28.9938 33.7301 28.3198ZM4.30416 32.4471C4.4445 33.3024 4.78039 34.09 5.26493 34.764L7.59385 32.4471H4.30416ZM11.9877 32.4471L14.3165 34.764C14.8011 34.0901 15.1369 33.3025 15.2773 32.4471H11.9877ZM23.7177 32.4471C23.8581 33.3024 24.194 34.09 24.6785 34.764L27.0074 32.4471H23.7177ZM31.4013 32.4471L33.7301 34.764C34.2147 34.0901 34.5505 33.3025 34.6909 32.4471H31.4013ZM8.88071 33.7273L6.55178 36.0442C7.22924 36.5263 8.02095 36.8604 8.88071 37V33.7273ZM10.7007 33.7273V37C11.5604 36.8604 12.3521 36.5262 13.0297 36.0442L10.7007 33.7273ZM28.2943 33.7273L25.9654 36.0442C26.6428 36.5263 27.4345 36.8604 28.2943 37V33.7273ZM30.1143 33.7273V37C30.974 36.8604 31.7657 36.5262 32.4432 36.0442L30.1143 33.7273Z" fill="black"/>
</svg>
