<svg width="32" height="89" viewBox="0 0 32 89" fill="none" xmlns="http://www.w3.org/2000/svg">
<path d="M27.1939 57.8158C27.6991 57.8043 28.2005 57.8935 28.6687 58.0781C29.1369 58.2628 29.5626 58.5393 29.921 58.8915C30.2794 59.2436 30.5633 59.6644 30.7561 60.1292C30.9489 60.5941 31.0468 61.0937 31.0441 61.5989C31.0413 62.1041 30.938 62.6048 30.74 63.0718C30.5421 63.5388 30.2536 63.9627 29.8914 64.3188C29.5291 64.6749 29.1003 64.9561 28.6301 65.1459C28.1598 65.3357 27.6575 65.4303 27.1524 65.4243L19.5439 65.4659L19.4634 80.6854C20.4727 80.6803 21.4384 81.0763 22.1479 81.7863C22.8574 82.4964 23.2527 83.4623 23.2469 84.4716C23.241 85.4809 22.8344 86.4509 22.1166 87.1682C21.3987 87.8856 20.4285 88.2915 19.4192 88.2966L15.6149 88.3174L11.8107 88.3382C10.8014 88.3441 9.83548 87.9487 9.12544 87.2392C8.41541 86.5297 8.01941 85.5641 8.02457 84.5548C8.02973 83.5455 8.43562 82.5752 9.15295 81.8573C9.87028 81.1395 10.8403 80.7329 11.8496 80.7271L11.9355 65.5074L4.327 65.549C3.32961 65.5371 2.38106 65.1339 1.68566 64.4262C0.99027 63.7185 0.603664 62.7629 0.609114 61.7652C0.614564 60.7676 1.01164 59.8077 1.71481 59.0923C2.41798 58.377 3.37099 57.9634 4.36858 57.9406L27.1939 57.8158ZM27.2174 54.0089L4.38399 54.1364L4.63618 8.47759L16.0931 0.804067L27.4669 8.35283L27.2174 54.0089Z" fill="#F2CE16"/>
</svg>
