<svg width="32" height="88" viewBox="0 0 32 88" fill="none" xmlns="http://www.w3.org/2000/svg">
<path d="M4.50529 30.8839C4.0001 30.8954 3.49876 30.8062 3.03055 30.6216C2.56233 30.4369 2.1366 30.1604 1.77821 29.8082C1.41981 29.4561 1.13592 29.0353 0.943096 28.5705C0.750275 28.1056 0.652389 27.606 0.655151 27.1008C0.657914 26.5956 0.761264 26.0949 0.959175 25.6279C1.15709 25.1609 1.44559 24.737 1.80786 24.3809C2.17013 24.0248 2.5989 23.7437 3.06917 23.5538C3.53943 23.364 4.04176 23.2694 4.54686 23.2754L12.1553 23.2338L12.2358 8.01426C11.2265 8.01942 10.2609 7.62342 9.55133 6.91338C8.8418 6.20335 8.44649 5.23743 8.45236 4.22813C8.45824 3.21883 8.86481 2.24881 9.58264 1.53148C10.3005 0.814153 11.2708 0.408252 12.2801 0.403096L16.0843 0.382312L19.8885 0.361525C20.8978 0.355654 21.8637 0.750965 22.5738 1.46049C23.2838 2.17002 23.6798 3.13565 23.6746 4.14495C23.6695 5.15425 23.2636 6.12454 22.5463 6.84237C21.8289 7.56021 20.8589 7.96678 19.8496 7.97265L19.7638 23.1923L27.3722 23.1507C28.3696 23.1626 29.3182 23.5658 30.0136 24.2735C30.7089 24.9812 31.0956 25.9368 31.0901 26.9345C31.0847 27.9321 30.6876 28.892 29.9844 29.6074C29.2812 30.3227 28.3282 30.7363 27.3306 30.7591L4.50529 30.8839ZM4.48179 34.6908L27.3152 34.5633L27.063 80.2221L15.6061 87.8956L4.2323 80.3469L4.48179 34.6908Z" fill="#00524A"/>
</svg>
