<svg width="289" height="158" viewBox="0 0 289 158" fill="none" xmlns="http://www.w3.org/2000/svg">
<path d="M30.5665 49.2603L33.3391 71.1221C34.2695 78.4591 40.5455 83.9896 47.9413 83.9896H57.1054C64.5007 83.9896 70.7772 78.4592 71.7077 71.1221L74.4803 49.2602C84.1888 55.3685 90.6219 66.635 92.7376 83.9326C95.0171 102.569 101.884 133.89 103.995 143.312L103.995 143.312C104.237 144.392 103.627 145.472 102.581 145.821L102.581 145.821L72.3823 155.893L72.3822 155.893C71.7498 156.104 71.0552 156.009 70.5015 155.637C69.9483 155.265 69.599 154.656 69.5564 153.991L67.1067 115.763L67.1067 115.763C67.0166 114.363 67.7864 113.048 69.0515 112.441L68.6388 111.581L69.0515 112.441L86.1818 104.219C88.8247 102.951 89.939 99.78 88.6707 97.1368L88.6706 97.1367L84.7818 89.0343C83.5133 86.3912 80.3407 85.2776 77.6991 86.5454L78.1318 87.447L77.6991 86.5454L60.4812 94.8092L60.4811 94.8092C58.5942 95.715 57.392 97.6233 57.392 99.7169V99.7546V99.7924V99.8303V99.8683V99.9065V99.9447V99.9831V100.022V100.06V100.099V100.138V100.177V100.216V100.255V100.294V100.333V100.373V100.412V100.452V100.492V100.532V100.572V100.612V100.652V100.692V100.733V100.773V100.814V100.854V100.895V100.936V100.977V101.018V101.059V101.1V101.142V101.183V101.225V101.267V101.308V101.35V101.392V101.434V101.476V101.518V101.561V101.603V101.645V101.688V101.731V101.773V101.816V101.859V101.902V101.945V101.988V102.032V102.075V102.118V102.162V102.205V102.249V102.293V102.337V102.381V102.425V102.469V102.513V102.557V102.601V102.646V102.69V102.735V102.779V102.824V102.869V102.913V102.958V103.003V103.048V103.093V103.139V103.184V103.229V103.275V103.32V103.366V103.411V103.457V103.503V103.548V103.594V103.64V103.686V103.732V103.778V103.825V103.871V103.917V103.963V104.01V104.056V104.103V104.15V104.196V104.243V104.29V104.337V104.383V104.43V104.477V104.524V104.572V104.619V104.666V104.713V104.76V104.808V104.855V104.903V104.95V104.998V105.045V105.093V105.141V105.189V105.236V105.284V105.332V105.38V105.428V105.476V105.524V105.572V105.621V105.669V105.717V105.765V105.814V105.862V105.91V105.959V106.007V106.056V106.104V106.153V106.202V106.25V106.299V106.348V106.397V106.445V106.494V106.543V106.592V106.641V106.69V106.739V106.788V106.837V106.886V106.935V106.984V107.033V107.083V107.132V107.181V107.23V107.28V107.329V107.378V107.428V107.477V107.526V107.576V107.625V107.675V107.724V107.774V107.823V107.873V107.922V107.972V108.021V108.071V108.121V108.17V108.22V108.27V108.319V108.369V108.419V108.468V108.518V108.568V108.617V108.667V108.717V108.767V108.816V108.866V108.916V108.966V109.016V109.065V109.115V109.165V109.215V109.265V109.314V109.364V109.414V109.464V109.514V109.563V109.613V109.663V109.713V109.763V109.812V109.862V109.912V109.962V110.012V110.061V110.111V110.161V110.211V110.26V110.31V110.36V110.409V110.459V110.509V110.559V110.608V110.658V110.707V110.757V110.807V110.856V110.906V110.955V111.005V111.055V111.104V111.154V111.203V111.252V111.302V111.351V111.401V111.45V111.499V111.549V111.598V111.647V111.697V111.746V111.795V111.844V111.893V111.943V111.992V112.041V112.09V112.139V112.188V112.237V112.286V112.335V112.384V112.432V112.481V112.53V112.579V112.627V112.676V112.725V112.773V112.822V112.87V112.919V112.967V113.016V113.064V113.113V113.161V113.209V113.257V113.305V113.354V113.402V113.45V113.498V113.546V113.594V113.641V113.689V113.737V113.785V113.832V113.88V113.928V113.975V114.023V114.07V114.117V114.165V114.212V114.259V114.306V114.354V114.401V114.448V114.495V114.541V114.588V114.635V114.682V114.729V114.775V114.822V114.868V114.915V114.961V115.007V115.054V115.1V115.146V115.192V115.238V115.284V115.33V115.375V115.421V115.467V115.512V115.558V115.603V115.649V115.694V115.739V115.785V115.83V115.875V115.92V115.965V116.01V116.054V116.099V116.144V116.188V116.233V116.277V116.321V116.365V116.41V116.454V116.498V116.542V116.585V116.629V116.673V116.716V116.76V116.803V116.847V116.89V116.933V116.976V117.019V117.062V117.105V117.148V117.19V117.233V117.275V117.318V117.36V117.402V117.444V117.486V117.528V117.57V117.612V117.654V117.695V117.737V117.778V117.819V117.861V117.902V117.943V117.983V118.024V118.065V118.106V118.146V118.186V118.227V118.267V118.307V118.347V118.387V118.427V118.466V118.506V118.545V118.585V118.624V118.663V118.702V118.741V118.78V118.819V118.857V118.896V118.934V118.972V119.011V119.049V119.087V119.124V119.162V119.2V119.237V119.274V119.312V119.349V119.386V119.423V119.46V119.496V119.533V119.569V119.605V119.642V119.678V119.714V119.749V119.785V119.821V119.856V119.891V119.927V119.962V119.997V120.031V120.066V120.101V120.135V120.169V120.204V120.238V120.271V120.305V120.339V120.372V120.406V120.439V120.472V120.505V120.538V120.571V120.603V120.636V120.668V120.7V120.732V120.764V120.796V120.827V120.859V120.89V120.921V120.952V120.983V121.014V121.045V121.075V121.105V121.136V121.166V121.196V121.225V121.255V121.284V121.314V121.343V121.372V121.401V121.429V121.458V121.486V121.515V121.543V121.571V121.598V121.626V121.653V121.681V121.708V121.735V121.762V121.788V121.815V121.841V121.868V121.894V121.919V121.945C57.392 122.167 57.3227 122.383 57.1942 122.563L57.1942 122.563L53.3888 127.89L53.3886 127.89C53.1893 128.169 52.8672 128.335 52.5236 128.335C52.1805 128.335 51.8581 128.169 51.6584 127.89L47.8531 122.563L47.8531 122.563C47.7244 122.383 47.6553 122.167 47.6553 121.945V121.92V121.894V121.868V121.841V121.815V121.788V121.762V121.735V121.708V121.681V121.654V121.626V121.598V121.571V121.543V121.515V121.486V121.458V121.43V121.401V121.372V121.343V121.314V121.285V121.255V121.226V121.196V121.166V121.136V121.106V121.075V121.045V121.014V120.984V120.953V120.922V120.891V120.859V120.828V120.796V120.764V120.733V120.701V120.668V120.636V120.604V120.571V120.538V120.506V120.473V120.44V120.406V120.373V120.339V120.306V120.272V120.238V120.204V120.17V120.136V120.101V120.067V120.032V119.997V119.962V119.927V119.892V119.857V119.821V119.786V119.75V119.714V119.678V119.642V119.606V119.57V119.533V119.497V119.46V119.423V119.387V119.35V119.312V119.275V119.238V119.2V119.163V119.125V119.087V119.049V119.011V118.973V118.935V118.897V118.858V118.819V118.781V118.742V118.703V118.664V118.625V118.586V118.546V118.507V118.467V118.428V118.388V118.348V118.308V118.268V118.228V118.187V118.147V118.106V118.066V118.025V117.984V117.943V117.903V117.861V117.82V117.779V117.738V117.696V117.655V117.613V117.571V117.529V117.487V117.445V117.403V117.361V117.319V117.276V117.234V117.191V117.149V117.106V117.063V117.02V116.977V116.934V116.891V116.848V116.804V116.761V116.717V116.674V116.63V116.586V116.543V116.499V116.455V116.411V116.366V116.322V116.278V116.234V116.189V116.145V116.1V116.055V116.011V115.966V115.921V115.876V115.831V115.786V115.741V115.695V115.65V115.605V115.559V115.514V115.468V115.422V115.377V115.331V115.285V115.239V115.193V115.147V115.101V115.055V115.008V114.962V114.916V114.869V114.823V114.776V114.73V114.683V114.636V114.589V114.543V114.496V114.449V114.402V114.355V114.307V114.26V114.213V114.166V114.118V114.071V114.024V113.976V113.929V113.881V113.833V113.786V113.738V113.69V113.642V113.595V113.547V113.499V113.451V113.403V113.355V113.306V113.258V113.21V113.162V113.114V113.065V113.017V112.968V112.92V112.871V112.823V112.774V112.726V112.677V112.628V112.58V112.531V112.482V112.433V112.385V112.336V112.287V112.238V112.189V112.14V112.091V112.042V111.993V111.944V111.894V111.845V111.796V111.747V111.698V111.648V111.599V111.55V111.5V111.451V111.402V111.352V111.303V111.253V111.204V111.154V111.105V111.055V111.006V110.956V110.907V110.857V110.808V110.758V110.708V110.659V110.609V110.559V110.51V110.46V110.41V110.361V110.311V110.261V110.211V110.162V110.112V110.062V110.012V109.963V109.913V109.863V109.813V109.763V109.714V109.664V109.614V109.564V109.514V109.465V109.415V109.365V109.315V109.265V109.216V109.166V109.116V109.066V109.016V108.967V108.917V108.867V108.817V108.767V108.718V108.668V108.618V108.568V108.519V108.469V108.419V108.37V108.32V108.27V108.221V108.171V108.121V108.072V108.022V107.973V107.923V107.873V107.824V107.774V107.725V107.675V107.626V107.576V107.527V107.478V107.428V107.379V107.33V107.28V107.231V107.182V107.132V107.083V107.034V106.985V106.936V106.887V106.838V106.789V106.74V106.691V106.642V106.593V106.544V106.495V106.446V106.397V106.348V106.3V106.251V106.202V106.154V106.105V106.056V106.008V105.959V105.911V105.863V105.814V105.766V105.718V105.669V105.621V105.573V105.525V105.477V105.429V105.381V105.333V105.285V105.237V105.189V105.141V105.094V105.046V104.998V104.951V104.903V104.856V104.808V104.761V104.714V104.666V104.619V104.572V104.525V104.478V104.431V104.384V104.337V104.29V104.243V104.197V104.15V104.103V104.057V104.01V103.964V103.917V103.871V103.825V103.779V103.733V103.687V103.641V103.595V103.549V103.503V103.457V103.412V103.366V103.32V103.275V103.23V103.184V103.139V103.094V103.049V103.004V102.959V102.914V102.869V102.824V102.779V102.735V102.69V102.646V102.602V102.557V102.513V102.469V102.425V102.381V102.337V102.293V102.249V102.206V102.162V102.119V102.075V102.032V101.989V101.945V101.902V101.859V101.816V101.774V101.731V101.688V101.646V101.603V101.561V101.518V101.476V101.434V101.392V101.35V101.308V101.267V101.225V101.183V101.142V101.101V101.059V101.018V100.977V100.936V100.895V100.854V100.814V100.773V100.733V100.692V100.652V100.612V100.572V100.532V100.492V100.452V100.412V100.373V100.333V100.294V100.255V100.216V100.177V100.138V100.099V100.06V100.022V99.9831V99.9447V99.9065V99.8683V99.8303V99.7924V99.7546V99.7169C47.6553 97.6243 46.452 95.7145 44.5662 94.8092L44.5661 94.8092L27.3482 86.5454L26.9155 87.447L27.3482 86.5454C24.7052 85.277 21.5333 86.3926 20.2655 89.0343L20.2655 89.0343L16.3772 97.1366C15.1082 99.78 16.2226 102.951 18.866 104.219C18.866 104.219 18.866 104.219 18.866 104.219L35.9957 112.441L36.4284 111.539L35.9958 112.441C37.2607 113.048 38.0303 114.362 37.9406 115.763L35.4909 153.99L35.4909 153.991C35.4486 154.656 35.0995 155.264 34.5463 155.636L34.546 155.636C33.9931 156.009 33.2982 156.103 32.6656 155.892L32.6655 155.892L2.46682 145.82L2.46665 145.82C1.42324 145.472 0.811375 144.388 1.0525 143.311L0.0766797 143.093L1.0525 143.311C3.16268 133.89 10.0301 102.569 12.3092 83.9325C14.4248 66.6351 20.8584 55.3686 30.5665 49.2603Z" fill="#F2CE16" stroke="black" stroke-width="2"/>
<path d="M53.134 1.22908L53.1343 1.22935L67.615 13.8822C67.6151 13.8822 67.6151 13.8823 67.6151 13.8823C68.5113 14.6656 68.959 15.8435 68.8094 17.0239L62.1031 69.9037C61.7839 72.4202 59.643 74.3068 57.1059 74.3068H47.9418C45.4047 74.3068 43.2638 72.4202 42.9446 69.9037L36.2384 17.024C36.2384 17.024 36.2384 17.024 36.2384 17.0239C36.0887 15.8435 36.5365 14.6656 37.4326 13.8823C37.4327 13.8823 37.4327 13.8822 37.4327 13.8822L51.913 1.22933L51.9133 1.22908C52.0879 1.07634 52.3046 1 52.5236 1C52.7426 1 52.9593 1.07634 53.134 1.22908Z" fill="#D91136" stroke="black" stroke-width="2"/>
<path d="M180 97.464C177.6 98.808 174.256 99.48 169.968 99.48C165.712 99.48 161.952 97.944 158.688 94.872C155.456 91.8 153.84 87.992 153.84 83.448C153.84 78.872 155.248 75.048 158.064 71.976C160.912 68.904 164.576 67.368 169.056 67.368C172.672 67.368 176.208 67.928 179.664 69.048L179.088 70.872C175.76 69.848 172.32 69.336 168.768 69.336C165.216 69.336 162.224 70.696 159.792 73.416C157.392 76.104 156.192 79.416 156.192 83.352C156.192 87.256 157.584 90.584 160.368 93.336C163.184 96.088 166.432 97.464 170.112 97.464C173.792 97.464 176.848 96.952 179.28 95.928L180 97.464ZM187.869 99V67.848H202.413V69.768H190.077V81.096H201.213V82.968H190.077V96.984H202.893V99H187.869ZM199.917 62.808L192.909 65.352L191.277 64.872L199.629 60.264L199.917 62.808ZM218.017 69.192C216.289 69.192 214.881 69.608 213.793 70.44C212.705 71.272 212.161 72.44 212.161 73.944C212.161 75.672 212.881 77.224 214.321 78.6C215.345 79.592 216.657 80.648 218.257 81.768C219.889 82.856 221.009 83.64 221.617 84.12C222.225 84.6 222.961 85.256 223.825 86.088C225.393 87.656 226.177 89.464 226.177 91.512C226.177 94.168 225.281 96.184 223.489 97.56C221.729 98.904 219.249 99.576 216.049 99.576C212.881 99.576 210.225 98.744 208.081 97.08L209.233 95.4C211.409 96.872 213.713 97.608 216.145 97.608C218.577 97.608 220.465 97.096 221.809 96.072C223.185 95.048 223.873 93.608 223.873 91.752C223.873 90.152 223.185 88.68 221.809 87.336C220.849 86.376 219.553 85.336 217.921 84.216C216.321 83.096 215.201 82.296 214.561 81.816C213.921 81.304 213.169 80.632 212.305 79.8C210.673 78.168 209.857 76.28 209.857 74.136C209.857 71.992 210.609 70.312 212.113 69.096C213.649 67.88 215.761 67.272 218.449 67.272C221.137 67.272 223.553 67.8 225.697 68.856L224.881 70.632C222.897 69.672 220.609 69.192 218.017 69.192ZM236.562 88.2L232.098 99H229.842L242.898 67.656H244.194L257.346 99H254.898L250.386 88.2H236.562ZM243.426 71.208C242.946 72.648 242.514 73.848 242.13 74.808L237.33 86.328H249.618L244.866 74.856C244.13 73.064 243.65 71.848 243.426 71.208ZM263.666 99V67.992C266.418 67.768 268.754 67.656 270.674 67.656C273.618 67.656 276.05 68.424 277.97 69.96C279.89 71.464 280.85 73.624 280.85 76.44C280.85 78.328 280.306 80.072 279.218 81.672C278.13 83.272 276.898 84.568 275.522 85.56C279.33 90.616 281.682 93.64 282.578 94.632C284.402 96.52 286.386 97.592 288.53 97.848L288.482 99.336C286.69 99.304 285.234 99.048 284.114 98.568C282.994 98.056 281.874 97.208 280.754 96.024C279.666 94.84 277.25 91.656 273.506 86.472C270.914 86.472 268.37 86.392 265.874 86.232V99H263.666ZM272.306 84.648C273.554 84.648 274.898 83.816 276.338 82.152C277.778 80.488 278.498 78.552 278.498 76.344C278.498 74.136 277.746 72.456 276.242 71.304C274.738 70.152 272.786 69.576 270.386 69.576C269.106 69.576 267.602 69.64 265.874 69.768V84.408C268.178 84.568 270.322 84.648 272.306 84.648Z" fill="black"/>
<path d="M180 97.464L180.244 97.9003L180.65 97.673L180.453 97.2518L180 97.464ZM158.688 94.872L158.344 95.2344L158.345 95.2361L158.688 94.872ZM158.064 71.976L157.697 71.6361L157.695 71.6381L158.064 71.976ZM179.664 69.048L180.141 69.1986L180.29 68.7253L179.818 68.5724L179.664 69.048ZM179.088 70.872L178.941 71.3499L179.415 71.4958L179.565 71.0226L179.088 70.872ZM159.792 73.416L159.419 73.0827L159.419 73.083L159.792 73.416ZM160.368 93.336L160.016 93.6916L160.019 93.6936L160.368 93.336ZM179.28 95.928L179.733 95.7158L179.529 95.2807L179.086 95.4672L179.28 95.928ZM179.756 97.0277C177.461 98.3129 174.214 98.98 169.968 98.98V99.98C174.298 99.98 177.739 99.3031 180.244 97.9003L179.756 97.0277ZM169.968 98.98C165.847 98.98 162.207 97.4977 159.031 94.5079L158.345 95.2361C161.697 98.3903 165.577 99.98 169.968 99.98V98.98ZM159.032 94.5096C155.902 91.534 154.34 87.8579 154.34 83.448H153.34C153.34 88.1261 155.01 92.066 158.344 95.2344L159.032 94.5096ZM154.34 83.448C154.34 78.9838 155.71 75.2843 158.433 72.3139L157.695 71.6381C154.786 74.8117 153.34 78.7602 153.34 83.448H154.34ZM158.431 72.3159C161.177 69.3537 164.704 67.868 169.056 67.868V66.868C164.448 66.868 160.647 68.4543 157.697 71.6361L158.431 72.3159ZM169.056 67.868C172.619 67.868 176.103 68.4197 179.51 69.5236L179.818 68.5724C176.313 67.4363 172.725 66.868 169.056 66.868V67.868ZM179.187 68.8974L178.611 70.7214L179.565 71.0226L180.141 69.1986L179.187 68.8974ZM179.235 70.3941C175.858 69.3552 172.369 68.836 168.768 68.836V69.836C172.271 69.836 175.662 70.3408 178.941 71.3499L179.235 70.3941ZM168.768 68.836C165.069 68.836 161.943 70.2599 159.419 73.0827L160.165 73.7493C162.505 71.1321 165.363 69.836 168.768 69.836V68.836ZM159.419 73.083C156.929 75.8714 155.692 79.3054 155.692 83.352H156.692C156.692 79.5266 157.855 76.3366 160.165 73.749L159.419 73.083ZM155.692 83.352C155.692 87.39 157.138 90.846 160.016 93.6916L160.72 92.9804C158.03 90.322 156.692 87.122 156.692 83.352H155.692ZM160.019 93.6936C162.921 96.5298 166.292 97.964 170.112 97.964V96.964C166.572 96.964 163.447 95.6462 160.717 92.9784L160.019 93.6936ZM170.112 97.964C173.834 97.964 176.961 97.4467 179.474 96.3888L179.086 95.4672C176.735 96.4573 173.75 96.964 170.112 96.964V97.964ZM178.827 96.1402L179.547 97.6762L180.453 97.2518L179.733 95.7158L178.827 96.1402ZM187.869 99H187.369V99.5H187.869V99ZM187.869 67.848V67.348H187.369V67.848H187.869ZM202.413 67.848H202.913V67.348H202.413V67.848ZM202.413 69.768V70.268H202.913V69.768H202.413ZM190.077 69.768V69.268H189.577V69.768H190.077ZM190.077 81.096H189.577V81.596H190.077V81.096ZM201.213 81.096H201.713V80.596H201.213V81.096ZM201.213 82.968V83.468H201.713V82.968H201.213ZM190.077 82.968V82.468H189.577V82.968H190.077ZM190.077 96.984H189.577V97.484H190.077V96.984ZM202.893 96.984H203.393V96.484H202.893V96.984ZM202.893 99V99.5H203.393V99H202.893ZM199.917 62.808L200.088 63.278L200.459 63.1435L200.414 62.7518L199.917 62.808ZM192.909 65.352L192.768 65.8317L192.926 65.878L193.08 65.822L192.909 65.352ZM191.277 64.872L191.036 64.4342L189.986 65.0134L191.136 65.3517L191.277 64.872ZM199.629 60.264L200.126 60.2078L200.042 59.4652L199.388 59.8262L199.629 60.264ZM188.369 99V67.848H187.369V99H188.369ZM187.869 68.348H202.413V67.348H187.869V68.348ZM201.913 67.848V69.768H202.913V67.848H201.913ZM202.413 69.268H190.077V70.268H202.413V69.268ZM189.577 69.768V81.096H190.577V69.768H189.577ZM190.077 81.596H201.213V80.596H190.077V81.596ZM200.713 81.096V82.968H201.713V81.096H200.713ZM201.213 82.468H190.077V83.468H201.213V82.468ZM189.577 82.968V96.984H190.577V82.968H189.577ZM190.077 97.484H202.893V96.484H190.077V97.484ZM202.393 96.984V99H203.393V96.984H202.393ZM202.893 98.5H187.869V99.5H202.893V98.5ZM199.747 62.338L192.739 64.882L193.08 65.822L200.088 63.278L199.747 62.338ZM193.05 64.8723L191.418 64.3923L191.136 65.3517L192.768 65.8317L193.05 64.8723ZM191.519 65.3098L199.871 60.7018L199.388 59.8262L191.036 64.4342L191.519 65.3098ZM199.133 60.3202L199.421 62.8642L200.414 62.7518L200.126 60.2078L199.133 60.3202ZM213.793 70.44L213.489 70.0428L213.793 70.44ZM214.321 78.6L214.669 78.2409L214.666 78.2385L214.321 78.6ZM218.257 81.768L217.97 82.1777L217.979 82.184L218.257 81.768ZM221.617 84.12L221.307 84.5124L221.617 84.12ZM223.825 86.088L224.178 85.7344L224.172 85.7278L223.825 86.088ZM223.489 97.56L223.792 97.9574L223.793 97.9566L223.489 97.56ZM208.081 97.08L207.668 96.7972L207.402 97.186L207.774 97.475L208.081 97.08ZM209.233 95.4L209.513 94.9859L209.101 94.7075L208.82 95.1172L209.233 95.4ZM221.809 96.072L221.51 95.6709L221.506 95.6743L221.809 96.072ZM221.809 87.336L221.455 87.6896L221.459 87.6937L221.809 87.336ZM217.921 84.216L217.634 84.6256L217.638 84.6283L217.921 84.216ZM214.561 81.816L214.248 82.2064L214.255 82.2113L214.261 82.216L214.561 81.816ZM212.305 79.8L211.951 80.1536L211.958 80.1602L212.305 79.8ZM212.113 69.096L211.802 68.704L211.798 68.7072L212.113 69.096ZM225.697 68.856L226.151 69.0647L226.354 68.6225L225.918 68.4075L225.697 68.856ZM224.881 70.632L224.663 71.0821L225.122 71.3043L225.335 70.8407L224.881 70.632ZM218.017 68.692C216.208 68.692 214.685 69.1284 213.489 70.0428L214.096 70.8372C215.077 70.0876 216.369 69.692 218.017 69.692V68.692ZM213.489 70.0428C212.264 70.9796 211.661 72.3018 211.661 73.944H212.661C212.661 72.5782 213.146 71.5644 214.096 70.8372L213.489 70.0428ZM211.661 73.944C211.661 75.8297 212.453 77.5069 213.975 78.9615L214.666 78.2385C213.308 76.9411 212.661 75.5143 212.661 73.944H211.661ZM213.973 78.9591C215.021 79.9749 216.356 81.0476 217.97 82.1776L218.543 81.3584C216.958 80.2484 215.668 79.2091 214.669 78.2409L213.973 78.9591ZM217.979 82.184C219.612 83.2724 220.717 84.0464 221.307 84.5124L221.927 83.7276C221.301 83.2336 220.165 82.4396 218.534 81.352L217.979 82.184ZM221.307 84.5124C221.897 84.9784 222.62 85.6221 223.478 86.4482L224.172 85.7278C223.301 84.8899 222.552 84.2216 221.927 83.7276L221.307 84.5124ZM223.471 86.4416C224.954 87.9243 225.677 89.6082 225.677 91.512H226.677C226.677 89.3198 225.832 87.3876 224.178 85.7344L223.471 86.4416ZM225.677 91.512C225.677 94.0433 224.831 95.8993 223.184 97.1634L223.793 97.9566C225.731 96.4687 226.677 94.2927 226.677 91.512H225.677ZM223.185 97.1626C221.544 98.4162 219.186 99.076 216.049 99.076V100.076C219.311 100.076 221.914 99.3918 223.792 97.9574L223.185 97.1626ZM216.049 99.076C212.972 99.076 210.429 98.27 208.387 96.685L207.774 97.475C210.02 99.218 212.789 100.076 216.049 100.076V99.076ZM208.493 97.3628L209.645 95.6828L208.82 95.1172L207.668 96.7972L208.493 97.3628ZM208.953 95.8141C211.204 97.3374 213.605 98.108 216.145 98.108V97.108C213.821 97.108 211.613 96.4066 209.513 94.9859L208.953 95.8141ZM216.145 98.108C218.64 98.108 220.65 97.5836 222.112 96.4697L221.506 95.6743C220.28 96.6084 218.514 97.108 216.145 97.108V98.108ZM222.107 96.4731C223.622 95.3461 224.373 93.751 224.373 91.752H223.373C223.373 93.465 222.748 94.7499 221.51 95.6709L222.107 96.4731ZM224.373 91.752C224.373 89.9907 223.61 88.396 222.158 86.9783L221.459 87.6937C222.76 88.964 223.373 90.3133 223.373 91.752H224.373ZM222.162 86.9824C221.173 85.9934 219.851 84.934 218.204 83.8037L217.638 84.6283C219.255 85.738 220.524 86.7586 221.455 87.6896L222.162 86.9824ZM218.207 83.8064C216.607 82.6863 215.493 81.8906 214.861 81.416L214.261 82.216C214.908 82.7014 216.034 83.5057 217.634 84.6256L218.207 83.8064ZM214.873 81.4256C214.249 80.9264 213.509 80.2656 212.652 79.4398L211.958 80.1602C212.828 80.9984 213.592 81.6816 214.248 82.2064L214.873 81.4256ZM212.658 79.4464C211.112 77.9003 210.357 76.1366 210.357 74.136H209.357C209.357 76.4234 210.233 78.4357 211.951 80.1536L212.658 79.4464ZM210.357 74.136C210.357 72.1244 211.054 70.5948 212.427 69.4848L211.798 68.7072C210.163 70.0292 209.357 71.8596 209.357 74.136H210.357ZM212.423 69.488C213.843 68.364 215.832 67.772 218.449 67.772V66.772C215.69 66.772 213.455 67.396 211.802 68.704L212.423 69.488ZM218.449 67.772C221.07 67.772 223.409 68.2864 225.476 69.3045L225.918 68.4075C223.697 67.3136 221.204 66.772 218.449 66.772V67.772ZM225.242 68.6472L224.426 70.4232L225.335 70.8407L226.151 69.0647L225.242 68.6472ZM225.099 70.1819C223.036 69.1838 220.671 68.692 218.017 68.692V69.692C220.547 69.692 222.758 70.1602 224.663 71.0821L225.099 70.1819ZM236.562 88.2V87.7H236.227L236.1 88.009L236.562 88.2ZM232.098 99V99.5H232.432L232.56 99.191L232.098 99ZM229.842 99L229.38 98.8077L229.092 99.5H229.842V99ZM242.898 67.656V67.156H242.564L242.436 67.4637L242.898 67.656ZM244.194 67.656L244.655 67.4625L244.526 67.156H244.194V67.656ZM257.346 99V99.5H258.098L257.807 98.8065L257.346 99ZM254.898 99L254.436 99.1927L254.565 99.5H254.898V99ZM250.386 88.2L250.847 88.0073L250.719 87.7H250.386V88.2ZM243.426 71.208L243.898 71.0428L243.414 69.6615L242.951 71.0499L243.426 71.208ZM242.13 74.808L242.591 75.0003L242.594 74.9937L242.13 74.808ZM237.33 86.328L236.868 86.1357L236.58 86.828H237.33V86.328ZM249.618 86.328V86.828H250.366L250.08 86.1367L249.618 86.328ZM244.866 74.856L244.403 75.046L244.404 75.0473L244.866 74.856ZM236.1 88.009L231.636 98.809L232.56 99.191L237.024 88.391L236.1 88.009ZM232.098 98.5H229.842V99.5H232.098V98.5ZM230.303 99.1923L243.359 67.8483L242.436 67.4637L229.38 98.8077L230.303 99.1923ZM242.898 68.156H244.194V67.156H242.898V68.156ZM243.733 67.8495L256.885 99.1935L257.807 98.8065L244.655 67.4625L243.733 67.8495ZM257.346 98.5H254.898V99.5H257.346V98.5ZM255.359 98.8073L250.847 88.0073L249.924 88.3927L254.436 99.1927L255.359 98.8073ZM250.386 87.7H236.562V88.7H250.386V87.7ZM242.951 71.0499C242.473 72.4845 242.045 73.6745 241.665 74.6223L242.594 74.9937C242.983 74.0215 243.418 72.8115 243.9 71.3661L242.951 71.0499ZM241.668 74.6157L236.868 86.1357L237.791 86.5203L242.591 75.0003L241.668 74.6157ZM237.33 86.828H249.618V85.828H237.33V86.828ZM250.08 86.1367L245.328 74.6647L244.404 75.0473L249.156 86.5193L250.08 86.1367ZM245.328 74.666C244.591 72.8724 244.117 71.6684 243.898 71.0428L242.954 71.3732C243.183 72.0276 243.668 73.2556 244.403 75.046L245.328 74.666ZM263.666 99H263.166V99.5H263.666V99ZM263.666 67.992L263.626 67.4936L263.166 67.531V67.992H263.666ZM277.97 69.96L277.658 70.3505L277.662 70.3536L277.97 69.96ZM279.218 81.672L279.632 81.9532L279.218 81.672ZM275.522 85.56L275.23 85.1544L274.816 85.453L275.123 85.8608L275.522 85.56ZM282.578 94.632L282.207 94.9671L282.213 94.9734L282.219 94.9794L282.578 94.632ZM288.53 97.848L289.03 97.8641L289.045 97.4059L288.59 97.3515L288.53 97.848ZM288.482 99.336L288.473 99.8359L288.966 99.8447L288.982 99.3521L288.482 99.336ZM284.114 98.568L283.906 99.0229L283.917 99.0276L284.114 98.568ZM280.754 96.024L280.386 96.3623L280.391 96.3676L280.754 96.024ZM273.506 86.472L273.912 86.1793L273.762 85.972H273.506V86.472ZM265.874 86.232L265.906 85.733L265.374 85.6989V86.232H265.874ZM265.874 99V99.5H266.374V99H265.874ZM276.338 82.152L275.96 81.8248L276.338 82.152ZM276.242 71.304L276.546 70.9071L276.242 71.304ZM265.874 69.768L265.837 69.2694L265.374 69.3037V69.768H265.874ZM265.874 84.408H265.374V84.8745L265.84 84.9068L265.874 84.408ZM264.166 99V67.992H263.166V99H264.166ZM263.707 68.4904C266.451 68.267 268.772 68.156 270.674 68.156V67.156C268.736 67.156 266.386 67.269 263.626 67.4936L263.707 68.4904ZM270.674 68.156C273.528 68.156 275.843 68.8986 277.658 70.3504L278.283 69.5696C276.257 67.9494 273.709 67.156 270.674 67.156V68.156ZM277.662 70.3536C279.441 71.7474 280.35 73.7509 280.35 76.44H281.35C281.35 73.4971 280.339 71.1806 278.279 69.5664L277.662 70.3536ZM280.35 76.44C280.35 78.2251 279.838 79.8716 278.805 81.3908L279.632 81.9532C280.775 80.2724 281.35 78.4309 281.35 76.44H280.35ZM278.805 81.3908C277.745 82.9493 276.552 84.2009 275.23 85.1544L275.815 85.9656C277.244 84.9351 278.515 83.5947 279.632 81.9532L278.805 81.3908ZM275.123 85.8608C278.924 90.9082 281.292 93.9544 282.207 94.9671L282.949 94.2969C282.072 93.3256 279.736 90.3238 275.922 85.2592L275.123 85.8608ZM282.219 94.9794C284.105 96.9317 286.19 98.0721 288.471 98.3445L288.59 97.3515C286.583 97.1119 284.7 96.1083 282.938 94.2846L282.219 94.9794ZM288.031 97.8319L287.983 99.3199L288.982 99.3521L289.03 97.8641L288.031 97.8319ZM288.491 98.8361C286.736 98.8047 285.351 98.5539 284.311 98.1084L283.917 99.0276C285.118 99.5421 286.644 99.8033 288.473 99.8359L288.491 98.8361ZM284.322 98.1133C283.276 97.6351 282.207 96.832 281.117 95.6804L280.391 96.3676C281.542 97.584 282.712 98.4769 283.906 99.0227L284.322 98.1133ZM281.122 95.6857C280.059 94.5283 277.662 91.3721 273.912 86.1793L273.101 86.7647C276.839 91.9399 279.274 95.1517 280.386 96.3623L281.122 95.6857ZM273.506 85.972C270.925 85.972 268.391 85.8923 265.906 85.733L265.842 86.731C268.349 86.8917 270.904 86.972 273.506 86.972V85.972ZM265.374 86.232V99H266.374V86.232H265.374ZM265.874 98.5H263.666V99.5H265.874V98.5ZM272.306 85.148C273.779 85.148 275.25 84.174 276.716 82.4792L275.96 81.8248C274.547 83.458 273.33 84.148 272.306 84.148V85.148ZM276.716 82.4792C278.235 80.724 278.998 78.6717 278.998 76.344H277.998C277.998 78.4323 277.321 80.252 275.96 81.8248L276.716 82.4792ZM278.998 76.344C278.998 74.0095 278.195 72.1701 276.546 70.9071L275.938 71.7009C277.297 72.7419 277.998 74.2625 277.998 76.344H278.998ZM276.546 70.9071C274.934 69.6722 272.866 69.076 270.386 69.076V70.076C272.706 70.076 274.542 70.6318 275.938 71.7009L276.546 70.9071ZM270.386 69.076C269.09 69.076 267.574 69.1407 265.837 69.2694L265.911 70.2666C267.631 70.1392 269.122 70.076 270.386 70.076V69.076ZM265.374 69.768V84.408H266.374V69.768H265.374ZM265.84 84.9068C268.153 85.0675 270.309 85.148 272.306 85.148V84.148C270.335 84.148 268.203 84.0685 265.909 83.9092L265.84 84.9068Z" fill="black"/>
<line x1="127" y1="131.02" x2="127" y2="28.9999" stroke="black" stroke-width="2"/>
</svg>
