<svg width="41" height="28" viewBox="0 0 41 28" fill="none" xmlns="http://www.w3.org/2000/svg">
<path fill-rule="evenodd" clip-rule="evenodd" d="M14.0229 18.4234C18.945 21.785 23.5168 23.659 26.9187 24.6998C29.8884 25.6083 33.394 24.8959 36.127 23.0294L36.7528 22.602L29.2439 19.3387C27.8157 20.7609 25.1174 21.5936 22.4234 20.8169C20.3817 20.2284 17.6818 19.2233 15.2668 17.5739C12.8517 15.9246 11.3799 14.0807 10.5181 12.6866C9.3809 10.8467 10.6002 9.0039 12.6826 8.0285L7.90419 2.90051L7.27837 3.3279C4.54531 5.19438 3.50217 7.5884 4.83249 9.61652C6.3564 11.9399 9.10067 15.0619 14.0229 18.4234ZM25.1826 27.3466C21.3292 26.168 16.3234 24.0961 11.0199 20.4742C5.71641 16.8524 2.68278 13.4337 0.956695 10.8022C-1.32751 7.3198 0.75654 3.68017 4.27538 1.27705L4.9012 0.849663C6.82236 -0.462353 10.0285 -0.222004 11.4871 1.3434L17.4981 7.79409C17.8208 8.14048 17.9134 8.56407 17.7529 8.95974C17.5924 9.35542 17.194 9.6861 16.6561 9.86972L15.3106 10.3292C14.3936 10.6423 14.2055 11.1943 14.4307 11.5586C15.1503 12.7228 16.3533 14.2143 18.2697 15.5231C20.1864 16.832 22.3701 17.6535 24.0748 18.145C24.6084 18.2987 25.4166 18.1702 25.8751 17.544L26.548 16.625C26.8168 16.2579 27.3009 15.9857 27.8804 15.876C28.4597 15.7664 29.08 15.8298 29.5873 16.0502L39.033 20.1552C41.325 21.1513 41.6771 23.3409 39.7558 24.6528L39.13 25.0802C35.6112 27.4834 30.2816 28.9066 25.1826 27.3466Z" fill="white"/>
</svg>
