<svg width="101" height="101" viewBox="0 0 101 101" fill="none" xmlns="http://www.w3.org/2000/svg">
<g clip-path="url(#clip0_52_83)">
<path d="M101 41.1828V9.99583L90.2325 20.7119C86.6496 15.8808 82.2138 11.7075 77.1013 8.41316C69.0325 3.21428 59.673 0.466003 50.0337 0.466003C22.4451 0.466003 0 22.9111 0 50.5C0 78.0889 22.4451 100.534 50.034 100.534C59.6012 100.534 68.9016 97.8239 76.9302 92.6968C84.7414 87.7084 91.0086 80.674 95.0542 72.3547L87.6322 68.7456C80.5731 83.2628 66.1663 92.2809 50.0342 92.2809C26.9958 92.2809 8.25307 73.5382 8.25307 50.5C8.25307 27.4618 26.9958 8.71908 50.034 8.71908C63.747 8.71908 76.5646 15.5691 84.3038 26.6123L69.6631 41.1828H101Z" fill="black"/>
</g>
<defs>
<clipPath id="clip0_52_83">
<rect width="101" height="101" fill="white"/>
</clipPath>
</defs>
</svg>
