<svg width="39" height="52" viewBox="0 0 39 52" fill="none" xmlns="http://www.w3.org/2000/svg">
<path d="M19.0339 14.0029C11.5119 14.0029 6.55897 18.2565 5.41413 27.6055C4.71552 33.3109 2.70599 42.6423 1.86687 46.4223C1.65646 47.3703 2.19612 48.3253 3.11853 48.6325L11.3081 51.3606C11.8673 51.5469 12.4812 51.4634 12.9703 51.1347C13.4593 50.806 13.7678 50.2693 13.8055 49.6818L14.5251 38.4647C14.5747 37.6924 14.1497 36.9674 13.451 36.6325L8.05236 34.0448C7.34325 33.7049 7.0443 32.8554 7.38472 32.1472L8.6699 29.4725C8.83325 29.1324 9.12526 28.8712 9.48159 28.7461C9.83793 28.6209 10.2295 28.6424 10.5699 28.8057L16.0163 31.4165C16.6751 31.7323 17.0941 32.3974 17.0941 33.1272V40.1937C17.0941 40.3356 17.1385 40.474 17.2211 40.5895L18.4788 42.348C18.6068 42.527 18.8135 42.6332 19.0337 42.6332C19.254 42.6332 19.4605 42.527 19.5886 42.348L20.8464 40.5895C20.929 40.474 20.9733 40.3356 20.9733 40.1937V33.1271C20.9733 32.3972 21.3925 31.7321 22.0513 31.4163L27.4977 28.8056C27.8381 28.6424 28.2297 28.6209 28.586 28.7459C28.9424 28.871 29.2344 29.1322 29.3977 29.4724L30.6831 32.147C31.0233 32.8552 30.7244 33.7048 30.0154 34.0446L24.6167 36.6323C23.9181 36.9673 23.4932 37.6922 23.5427 38.4645L24.2623 49.6816C24.3 50.2691 24.6084 50.8057 25.0975 51.1345C25.5864 51.4632 26.2005 51.5467 26.7597 51.3604L34.9493 48.6324C35.8734 48.3245 36.4117 47.372 36.2009 46.4221C35.362 42.642 33.3523 33.3107 32.6536 27.6054C31.5088 18.2565 26.5558 14.0029 19.0339 14.0029Z" fill="black"/>
<path d="M37.7376 8.29858C31.2662 2.22655 22.5323 -0.0987941 14.328 1.32221C14.1672 1.35011 14.0531 1.49331 14.0628 1.65612L14.2109 4.16439C14.2126 4.19279 14.1928 4.21815 14.1647 4.22323C14.1366 4.22847 14.1091 4.2119 14.1005 4.18468L13.3369 1.76077C13.29 1.61182 13.1421 1.51867 12.9872 1.54014C12.0807 1.66559 11.4765 1.76094 10.5693 2.1645C10.4364 2.22368 10.3603 2.36501 10.3836 2.50838L11.0724 6.73285C11.0836 6.80116 11.0501 6.86895 10.989 6.90158C10.9279 6.93421 10.8529 6.92457 10.8021 6.8774L7.4038 3.72279C7.3068 3.63268 7.1641 3.61154 7.04509 3.66953C4.64013 4.83947 2.37263 6.38255 0.330437 8.29858C0.165219 8.45361 0.0697454 8.66884 0.0660212 8.89538C0.0624663 9.12193 0.150831 9.34003 0.311308 9.50031L6.07377 15.2555C6.39032 15.5717 6.90002 15.5826 7.23062 15.2812C13.8972 9.19886 24.1708 9.19886 30.8374 15.2812C31.1683 15.5832 31.6774 15.5722 31.9942 15.2555L37.7567 9.50031C37.917 9.3402 38.0052 9.12177 38.0017 8.89538C37.9981 8.66884 37.9028 8.45361 37.7376 8.29858Z" fill="black"/>
</svg>
