<svg width="44" height="40" viewBox="0 0 44 40" fill="none" xmlns="http://www.w3.org/2000/svg">
<path d="M44 19.4854C44 30.2462 34.3297 38.9696 22.3981 38.9696C18.6118 38.9696 15.055 38.0892 11.9588 36.5474L0 40L3.89826 29.5432C1.93263 26.6084 0.8006 23.1624 0.8006 19.4841C0.802035 8.72338 10.4695 0 22.401 0C34.3311 0.00260867 44 8.72469 44 19.4854ZM22.3967 3.10692C12.3835 3.10692 4.2383 10.4555 4.2383 19.4894C4.2383 23.0737 5.52385 26.3919 7.69752 29.0919L5.43059 35.174L12.4064 33.1588C15.276 34.8701 18.7094 35.8666 22.3967 35.8666C32.41 35.8666 40.558 28.5193 40.558 19.4854C40.5609 10.4555 32.4114 3.10692 22.3967 3.10692ZM33.3067 23.9737C33.1718 23.7767 32.8189 23.6567 32.2909 23.4167C31.7643 23.1767 29.1573 22.0224 28.6738 21.8659C28.186 21.7054 27.833 21.6245 27.4801 22.1032C27.1314 22.5819 26.1156 23.6567 25.8043 23.9776C25.4958 24.2971 25.1873 24.3376 24.6579 24.1015C24.1285 23.8589 22.4211 23.358 20.3981 21.7315C18.8241 20.4637 17.761 18.9024 17.4539 18.4237C17.1426 17.9463 17.4224 17.6881 17.6849 17.4507C17.9217 17.2355 18.2144 16.8924 18.4798 16.612C18.7452 16.3342 18.8328 16.1372 19.0092 15.8177C19.1828 15.4981 19.0953 15.2203 18.9648 14.979C18.8328 14.739 17.7753 12.3912 17.332 11.4351C16.8915 10.4803 16.451 10.6381 16.1411 10.6381C15.8327 10.6381 15.4797 10.599 15.1267 10.599C14.7738 10.599 14.1999 10.7151 13.7164 11.1938C13.2329 11.6725 11.8641 12.8268 11.8641 15.1772C11.8641 17.5302 13.7594 19.7985 14.0248 20.1167C14.2917 20.4337 17.6892 25.4149 23.0711 27.3271C28.4557 29.2379 28.4557 28.6001 29.4256 28.5193C30.3984 28.4384 32.5592 27.3649 32.9982 26.251C33.4401 25.1319 33.4401 24.1732 33.3067 23.9737Z" fill="white"/>
</svg>
